
<svg xmlns="http://www.w3.org/2000/svg" width="800" height="600">
  <rect width="100%" height="100%" fill="#111827"/>
  <g fill="#1f2937"><rect x="0" y="0" width="800" height="600"/></g>
  <g fill="#0b0f19" stroke="#223" stroke-width="2">
    <rect x="50" y="50" width="200" height="150"/>
    <rect x="300" y="50" width="200" height="150"/>
    <rect x="550" y="50" width="200" height="150"/>
    <rect x="50" y="225" width="200" height="150"/>
    <rect x="300" y="225" width="200" height="150"/>
    <rect x="550" y="225" width="200" height="150"/>
    <rect x="50" y="400" width="200" height="150"/>
    <rect x="300" y="400" width="200" height="150"/>
    <rect x="550" y="400" width="200" height="150"/>
  </g>
  <g font-family="Arial" font-size="72" fill="#e5e7eb" text-anchor="middle" dominant-baseline="middle">
    <text x="150" y="125">1</text>
    <text x="400" y="125">2</text>
    <text x="650" y="125">3</text>
    <text x="150" y="300">4</text>
    <text x="400" y="300">5</text>
    <text x="650" y="300">6</text>
    <text x="150" y="475">7</text>
    <text x="400" y="475">8</text>
    <text x="650" y="475">9</text>
  </g>
</svg>
